HIERARCHY
ROOT Hips
{
	OFFSET 0.00000 0.00000 0.00000
	CHANNELS 6 Xposition Yposition Zposition Zrotation Yrotation Xrotation 
	JOINT LHipJoint
	{
		OFFSET 0 0 0
		CHANNELS 3 Zrotation Yrotation Xrotation
		JOINT LeftHip
		{
			OFFSET 1.62067 -1.77917 0.70989
			CHANNELS 3 Zrotation Yrotation Xrotation
			JOINT LeftKnee
			{
				OFFSET 2.34532 -6.44371 0.00000
				CHANNELS 3 Zrotation Yrotation Xrotation
				JOINT LeftAnkle
				{
					OFFSET 2.74224 -7.53425 0.00000
					CHANNELS 3 Zrotation Yrotation Xrotation
					JOINT LeftToe
					{
						OFFSET 0.17032 -0.46794 2.08086
						CHANNELS 3 Zrotation Yrotation Xrotation
						End Site
						{
							OFFSET 0.00000 -0.00000 1.07476
						}
					}
				}
			}
		}
	}
	JOINT RHipJoint
	{
		OFFSET 0 0 0
		CHANNELS 3 Zrotation Yrotation Xrotation
		JOINT RightHip
		{
			OFFSET -1.55811 -1.77917 0.70989
			CHANNELS 3 Zrotation Yrotation Xrotation
			JOINT RightKnee
			{
				OFFSET -2.33243 -6.40830 0.00000
				CHANNELS 3 Zrotation Yrotation Xrotation
				JOINT RightAnkle
				{
					OFFSET -2.78798 -7.65993 0.00000
					CHANNELS 3 Zrotation Yrotation Xrotation
					JOINT RightToe
					{
						OFFSET -0.22707 -0.62388 2.04059
						CHANNELS 3 Zrotation Yrotation Xrotation
						End Site
						{
							OFFSET -0.00000 -0.00000 1.07030
						}
					}
				}
			}
		}
	}
	JOINT lowerback
	{
		OFFSET 0 0 0
		CHANNELS 3 Zrotation Yrotation Xrotation
		JOINT Chest
		{
			OFFSET 0.02203 1.91565 0.07161
			CHANNELS 3 Zrotation Yrotation Xrotation
			JOINT Chest2
			{
				OFFSET 0.01740 1.90525 0.11636
				CHANNELS 3 Zrotation Yrotation Xrotation
				JOINT lowerneck
				{
					OFFSET 0 0 0
					CHANNELS 3 Zrotation Yrotation Xrotation
					JOINT Neck
					{
						OFFSET -0.10841 1.83566 0.05067
						CHANNELS 3 Zrotation Yrotation Xrotation
						JOINT Head
						{
							OFFSET 0.06601 1.74760 -0.50505
							CHANNELS 3 Zrotation Yrotation Xrotation
							End Site
							{
								OFFSET 0.03102 1.85215 -0.17697
							}
						}
					}
				}
				JOINT LeftCollar
				{
					OFFSET 0 0 0
					CHANNELS 3 Zrotation Yrotation Xrotation
					JOINT LeftShoulder
					{
						OFFSET 2.87059 1.35470 0.16111
CHANNELS 3 Zrotation Xrotation Yrotation
						JOINT LeftElbow
						{
OFFSET 0 -5.435920 0.000000
CHANNELS 3 Zrotation Xrotation Yrotation
							JOINT LeftWrist
							{
OFFSET 0 -3.254600 0.000000
CHANNELS 3 Zrotation Xrotation Yrotation
								JOINT lhand
								{
									OFFSET 0 0 0
CHANNELS 3 Zrotation Xrotation Yrotation
									JOINT LFingers
									{
OFFSET 0 -0.498240 0.000000
CHANNELS 3 Zrotation Xrotation Yrotation
										End Site
										{
OFFSET 0 -0.401700 0.000000
										}
									}
								}
								JOINT LThumb
								{
OFFSET 0 0.000000 0.000000
CHANNELS 3 Zrotation Xrotation Yrotation
									End Site
									{
OFFSET 0 -0.407830 0.407830
									}
								}
							}
						}
					}
				}
				JOINT RightCollar
				{
					OFFSET 0 0 0
					CHANNELS 3 Zrotation Yrotation Xrotation
					JOINT RightShoulder
					{
						OFFSET -2.86643 1.23488 0.45957
CHANNELS 3 Zrotation Xrotation Yrotation
						JOINT RightElbow
						{
OFFSET 0 -5.338300 0.000000
CHANNELS 3 Zrotation Xrotation Yrotation
							JOINT RightWrist
							{
OFFSET 0 -3.231480 0.000000
CHANNELS 3 Zrotation Xrotation Yrotation
								JOINT rhand
								{
									OFFSET 0 0 0
CHANNELS 3 Zrotation Xrotation Yrotation
									JOINT RFingers
									{
OFFSET 0 -0.463640 0.000000
CHANNELS 3 Zrotation Xrotation Yrotation
										End Site
										{
OFFSET 0 -0.373800 0.000000
										}
									}
								}
								JOINT RThumb
								{
OFFSET 0 0.000000 0.000000
CHANNELS 3 Zrotation Xrotation Yrotation
									End Site
									{
OFFSET 0 -0.379510 0.379510
									}
								}
							}
						}
					}
				}
			}
		}
	}
}
MOTION
Frames: 5
Frame Time: 0.008333333333333333
3.576000 17.624100 3.481200 -1.377800 -17.760400 18.650600 0.000000 0.000000 0.000000 -23.911400 -9.503800 -19.122400 0.816800 5.766800 16.109400 0.151600 9.782800 -16.213300 0.247700 3.202400 8.842800 0.000000 0.000000 0.000000 -3.906000 2.270200 1.343300 0.000000 -0.000000 0.000000 -3.482500 -5.821200 -37.608800 -8.018600 -16.132900 52.629800 3.799900 3.931300 -9.832300 -0.181200 4.974800 -12.539300 -2.125100 2.129500 -7.466000 12.645200 17.056100 -3.259900 4.755100 21.431800 15.417500 1.122500 11.433800 6.084100 -0.000000 -0.000000 0.000000 131.623100 -6.387600 18.313400 17.724000 -27.802300 4.419800 28.140300 -44.370400 22.327400 0.000000 0.000000 0.000000 -7.125000 0.000000 0.000000 -0.479100 5.007100 -0.435400 -0.000000 -0.000000 0.000000 -105.494700 2.951800 -21.056100 -138.508300 -48.929300 -100.443500 -12.248900 -49.943700 45.191000 0.000000 0.000000 0.000000 7.125000 0.000000 -0.000000 42.562300 71.853800 -28.665400
3.575597 17.624722 3.474173 -1.423768 -17.718586 18.646906 0.000000 0.000000 0.000000 -23.843812 -9.525228 -19.120616 0.816514 5.766005 16.106947 0.154015 9.781636 -16.244931 0.258994 3.274256 9.043273 0.000000 0.000000 0.000000 -3.837772 2.256055 1.336064 0.000000 0.000000 0.000000 -3.371963 -6.687353 -37.459118 -7.930547 -16.067889 52.312052 3.836311 3.918380 -9.759755 -0.168951 4.960724 -12.522815 -2.137092 2.119789 -7.487256 12.677840 17.014296 -3.142007 4.655792 21.405890 15.314335 1.071312 11.413250 6.045299 0.000000 0.000000 0.000000 131.620619 -6.357839 18.248167 17.732633 -27.813485 4.423751 28.766813 -44.724374 22.263682 0.000000 0.000000 0.000000 -7.125000 0.000000 0.000000 -0.080966 4.945886 -0.073661 0.000000 0.000000 0.000000 -105.443213 2.875165 -21.145304 -138.490605 -48.939165 -100.430178 -12.504115 -49.782836 45.131112 0.000000 0.000000 0.000000 7.125000 0.000000 0.000000 42.169342 71.902608 -28.415837
3.575437 17.625482 3.470218 -1.427777 -17.662642 18.653289 0.000000 0.000000 0.000000 -23.795526 -9.637892 -19.103964 0.813837 5.756772 16.080240 0.143796 9.825609 -16.158820 0.258876 3.273395 9.040796 0.000000 0.000000 0.000000 -3.813109 2.214651 1.305629 0.000000 0.000000 0.000000 -3.380688 -6.558981 -37.442049 -7.998619 -16.118246 52.557753 3.830282 3.902176 -9.652535 -0.171179 4.946428 -12.551475 -2.145626 2.110376 -7.580402 12.654004 16.978132 -3.228303 4.655187 21.344441 15.421357 1.082606 11.385746 6.089345 0.000000 0.000000 0.000000 131.606462 -6.382008 18.130951 17.747251 -27.832275 4.430626 28.812839 -44.825292 22.339762 0.000000 0.000000 0.000000 -7.125000 0.000000 0.000000 -0.063020 4.853013 -0.057485 0.000000 0.000000 0.000000 -105.417087 2.868615 -21.217463 -138.483072 -48.943375 -100.424510 -11.798975 -50.364225 45.242788 0.000000 0.000000 0.000000 7.125000 0.000000 0.000000 43.125775 71.731047 -28.977262
3.574433 17.626928 3.468905 -1.413912 -17.656037 18.656693 0.000000 0.000000 0.000000 -23.745954 -9.912711 -19.025562 0.812881 5.753343 16.070338 0.120563 10.072741 -16.145901 0.262322 3.294860 9.100948 0.000000 0.000000 0.000000 -3.819236 2.212012 1.276135 0.000000 0.000000 0.000000 -3.486039 -5.954536 -37.686264 -8.039407 -16.148136 52.704361 3.782166 3.899817 -9.532276 -0.182313 4.952902 -12.605107 -2.141518 2.113042 -7.710417 12.688168 16.938512 -3.240968 4.603515 21.293242 15.448480 1.062891 11.360269 6.108096 0.000000 0.000000 0.000000 131.565336 -6.512491 18.324030 17.713613 -27.788891 4.414880 28.538511 -44.469798 22.584478 0.000000 0.000000 0.000000 -7.125000 0.000000 0.000000 -0.267307 4.643842 -0.244826 0.000000 0.000000 0.000000 -105.382665 2.883771 -21.204871 -138.505019 -48.931076 -100.441062 -11.259470 -50.781122 45.389898 0.000000 0.000000 0.000000 7.125000 0.000000 0.000000 43.994370 71.640752 -29.544460
3.573876 17.629214 3.467848 -1.443481 -17.671118 18.678782 0.000000 0.000000 0.000000 -23.673940 -10.113249 -18.973052 0.812421 5.751836 16.066009 0.111372 10.258231 -16.252476 0.285618 3.436770 9.497301 0.000000 0.000000 0.000000 -3.787838 2.236623 1.257144 0.000000 0.000000 0.000000 -3.544416 -5.499954 -37.773546 -8.093074 -16.187169 52.896952 3.795678 3.924373 -9.544543 -0.192583 4.983631 -12.578120 -2.156510 2.128372 -7.669183 12.658904 16.906195 -3.284730 4.601564 21.245929 15.401075 1.061782 11.334043 6.094936 0.000000 0.000000 0.000000 131.523864 -6.689927 19.001908 17.608945 -27.653486 4.366225 28.509764 -43.865395 22.743343 0.000000 0.000000 0.000000 -7.125000 0.000000 0.000000 -0.307367 4.476684 -0.282481 0.000000 0.000000 0.000000 -105.350733 2.945065 -21.272148 -138.501961 -48.932780 -100.438718 -11.846092 -50.368161 45.272558 0.000000 0.000000 0.000000 7.125000 0.000000 0.000000 43.148748 71.767399 -29.026421
